<svg width="436" height="380" viewBox="0 0 436 380" fill="none" xmlns="http://www.w3.org/2000/svg">
<path d="M125.5 137V332L213.5 332V32L125.5 137Z" fill="#1D4189"/>
<path d="M213.5 32V332L320 332V107L213.5 32Z" fill="#8C8E91"/>
<path d="M251.5 240V332L348 332V175L251.5 240Z" fill="#1D4189" opacity="0.8"/>
<path d="M348 175V332L397 332V254L348 175Z" fill="#8C8E91"/>
<path d="M78 226.5L14 263.5V337.5L78 374.5L142 337.5V263.5L78 226.5Z" stroke="#1D4189" stroke-width="24" fill="none"/>
<path d="M142 320.5H356V281.5H142V320.5Z" fill="#1D4189"/>
<path d="M304 320.5V344.5H327V320.5H304Z" fill="#1D4189"/>
<path d="M336 320.5V344.5H359V320.5H336Z" fill="#1D4189"/>
<circle cx="78" cy="300" r="28" fill="#8C8E91"/>
</svg>